<?xml version="1.0" encoding="UTF-8"?>
<!DOCTYPE svg PUBLIC "-//W3C//DTD SVG 1.1//EN" "http://www.w3.org/Graphics/SVG/1.1/DTD/svg11.dtd">
<svg xmlns="http://www.w3.org/2000/svg" version="1.1" width="663px" height="128px" style="shape-rendering:geometricPrecision; text-rendering:geometricPrecision; image-rendering:optimizeQuality; fill-rule:evenodd; clip-rule:evenodd" xmlns:xlink="http://www.w3.org/1999/xlink">
<g><path style="opacity:0.93" fill="#fefffe" d="M 106.5,6.5 C 114.528,6.16897 122.528,6.5023 130.5,7.5C 121.681,15.8189 113.014,24.3189 104.5,33C 128.79,35.9375 139.623,49.4375 137,73.5C 132.559,85.6076 124.059,93.1076 111.5,96C 100.839,96.4998 90.1719,96.6665 79.5,96.5C 79.666,91.1563 79.4994,85.8229 79,80.5C 74.3092,82.6519 69.4759,82.9853 64.5,81.5C 63.671,86.4671 63.171,91.4671 63,96.5C 54.5,105 46,113.5 37.5,122C 29.5,122.667 21.5,122.667 13.5,122C 21.8333,113.667 30.1667,105.333 38.5,97C 14.7904,94.2996 3.95703,81.133 6,57.5C 9.52622,45.9738 17.0262,38.4738 28.5,35C 40.1189,33.6395 51.7856,33.1395 63.5,33.5C 63.1725,38.544 63.5059,43.544 64.5,48.5C 69.3082,46.9811 73.9748,47.3144 78.5,49.5C 79.3295,44.1975 79.8295,38.8642 80,33.5C 89.0356,24.6317 97.869,15.6317 106.5,6.5 Z M 58.5,51.5 C 50.2869,60.95 50.6202,70.1167 59.5,79C 50.8333,79.6667 42.1667,79.6667 33.5,79C 23.8771,75.9267 20.3771,69.4267 23,59.5C 24.4578,57.04 26.2911,54.8734 28.5,53C 38.3949,51.5505 48.3949,51.0505 58.5,51.5 Z M 82.5,51.5 C 93.2702,51.0471 103.937,51.5471 114.5,53C 121.841,59.1892 123.007,66.3559 118,74.5C 115.531,76.6515 112.698,78.1515 109.5,79C 100.167,79.6667 90.8333,79.6667 81.5,79C 90.3798,70.1167 90.7131,60.95 82.5,51.5 Z"/></g>
<g><path style="opacity:0.896" fill="#fefffe" d="M 445.5,22.5 C 454.657,21.4892 458.49,25.4892 457,34.5C 451.863,40.7141 446.863,40.7141 442,34.5C 440.593,29.6427 441.76,25.6427 445.5,22.5 Z"/></g>
<g><path style="opacity:0.937" fill="#fefffe" d="M 561.5,23.5 C 565.833,23.5 570.167,23.5 574.5,23.5C 574.5,47.1667 574.5,70.8333 574.5,94.5C 570.167,94.5 565.833,94.5 561.5,94.5C 561.66,92.8008 561.494,91.1341 561,89.5C 554.941,95.1645 547.774,96.9978 539.5,95C 523.604,87.6982 518.104,75.5315 523,58.5C 529.561,45.1366 540.061,40.3033 554.5,44C 557.102,44.8834 559.269,46.3834 561,48.5C 561.5,40.1733 561.666,31.84 561.5,23.5 Z M 545.5,55.5 C 559.601,56.7903 564.101,64.1237 559,77.5C 552.272,83.6997 545.272,84.0331 538,78.5C 532.627,67.961 535.127,60.2943 545.5,55.5 Z"/></g>
<g><path style="opacity:0.892" fill="#fefffe" d="M 195.5,42.5 C 196.833,42.5 198.167,42.5 199.5,42.5C 199.5,47.8333 199.5,53.1667 199.5,58.5C 193.266,57.3734 188.432,59.3734 185,64.5C 184.5,74.4944 184.334,84.4944 184.5,94.5C 179.833,94.5 175.167,94.5 170.5,94.5C 170.5,77.5 170.5,60.5 170.5,43.5C 175.167,43.5 179.833,43.5 184.5,43.5C 184.338,45.5273 184.505,47.5273 185,49.5C 187.625,45.7763 191.125,43.443 195.5,42.5 Z"/></g>
<g><path style="opacity:0.922" fill="#fefffe" d="M 318.5,42.5 C 340.823,41.49 351.49,52.1566 350.5,74.5C 337.829,74.3334 325.162,74.5001 312.5,75C 317.32,82.437 323.987,84.7703 332.5,82C 334.305,81.028 335.972,79.8613 337.5,78.5C 341.336,80.2501 345.002,82.2501 348.5,84.5C 340.786,94.2395 330.786,97.7395 318.5,95C 301.552,88.9963 295.385,77.163 300,59.5C 303.858,51.1354 310.024,45.4687 318.5,42.5 Z M 324.5,54.5 C 330.175,54.6699 334.175,57.3365 336.5,62.5C 328.521,63.6649 320.521,63.8316 312.5,63C 315.055,57.9203 319.055,55.0869 324.5,54.5 Z"/></g>
<g><path style="opacity:0.909" fill="#fefffe" d="M 380.5,42.5 C 387.75,41.1386 393.75,43.1386 398.5,48.5C 406.907,41.5928 415.907,40.7595 425.5,46C 428.491,48.9904 430.657,52.4904 432,56.5C 432.5,69.1623 432.667,81.8289 432.5,94.5C 427.833,94.5 423.167,94.5 418.5,94.5C 418.667,82.8286 418.5,71.1619 418,59.5C 416.607,56.6339 414.274,55.3006 411,55.5C 406.69,55.3204 404.024,57.3204 403,61.5C 402.5,72.495 402.333,83.495 402.5,94.5C 397.833,94.5 393.167,94.5 388.5,94.5C 388.667,82.8286 388.5,71.1619 388,59.5C 384.58,55.2468 380.413,54.4135 375.5,57C 374.299,57.9025 373.465,59.0692 373,60.5C 372.5,71.8284 372.333,83.1618 372.5,94.5C 367.833,94.5 363.167,94.5 358.5,94.5C 358.5,77.5 358.5,60.5 358.5,43.5C 363.167,43.5 367.833,43.5 372.5,43.5C 372.343,44.8734 372.51,46.2068 373,47.5C 375.17,45.1769 377.67,43.5103 380.5,42.5 Z"/></g>
<g><path style="opacity:0.901" fill="#fefffe" d="M 489.5,42.5 C 503.446,40.871 511.613,46.871 514,60.5C 514.5,71.8284 514.667,83.1618 514.5,94.5C 509.833,94.5 505.167,94.5 500.5,94.5C 500.667,83.8281 500.5,73.1615 500,62.5C 498.76,57.9291 495.76,55.5957 491,55.5C 485.506,55.5688 482.173,58.2355 481,63.5C 480.5,73.828 480.334,84.1613 480.5,94.5C 475.833,94.5 471.167,94.5 466.5,94.5C 466.5,77.5 466.5,60.5 466.5,43.5C 471.167,43.5 475.833,43.5 480.5,43.5C 480.34,45.1992 480.506,46.8659 481,48.5C 483.284,45.6177 486.117,43.6177 489.5,42.5 Z"/></g>
<g><path style="opacity:0.911" fill="#fefffe" d="M 201.5,43.5 C 206.43,43.1975 211.263,43.5308 216,44.5C 220.196,54.7548 224.196,65.0881 228,75.5C 232.006,64.9816 235.506,54.3149 238.5,43.5C 243.544,43.1725 248.544,43.5059 253.5,44.5C 246.555,64.3875 239.055,84.0542 231,103.5C 225.519,111.273 218.019,114.939 208.5,114.5C 208.5,110.167 208.5,105.833 208.5,101.5C 214.936,101.233 219.27,98.0659 221.5,92C 214.34,76.0161 207.673,59.8495 201.5,43.5 Z"/></g>
<g><path style="opacity:0.913" fill="#fefffe" d="M 256.5,43.5 C 269.167,43.5 281.833,43.5 294.5,43.5C 294.665,47.1817 294.499,50.8484 294,54.5C 287.134,63.0666 280.634,71.9 274.5,81C 281.492,81.4996 288.492,81.6663 295.5,81.5C 295.5,85.8333 295.5,90.1667 295.5,94.5C 282.167,94.5 268.833,94.5 255.5,94.5C 255.335,91.1501 255.502,87.8168 256,84.5C 262.468,75.0655 269.301,65.8988 276.5,57C 269.842,56.5004 263.175,56.3337 256.5,56.5C 256.5,52.1667 256.5,47.8333 256.5,43.5 Z"/></g>
<g><path style="opacity:0.888" fill="#fefffe" d="M 442.5,43.5 C 447.167,43.5 451.833,43.5 456.5,43.5C 456.5,60.5 456.5,77.5 456.5,94.5C 451.833,94.5 447.167,94.5 442.5,94.5C 442.5,77.5 442.5,60.5 442.5,43.5 Z"/></g>
</svg>
