<svg 
 xmlns="http://www.w3.org/2000/svg"
 xmlns:xlink="http://www.w3.org/1999/xlink"
 width="262px" height="262px">
<path fill-rule="evenodd"  fill="rgb(255, 255, 255)"
 d="M261.466,130.288 L234.554,132.655 L234.142,127.979 L252.180,114.304 L233.87,115.983 L232.676,111.307 L259.587,108.940 L259.999,113.616 L241.890,127.335 L261.57,125.649 L261.466,130.288 ZM227.993,95.876 L244.185,83.497 L223.968,86.297 L222.221,82.141 L244.711,65.926 L246.515,70.220 L229.427,81.950 L250.139,78.841 L251.663,82.467 L234.892,95.50 L255.250,91.3 L257.54,95.297 L229.733,100.16 L227.993,95.876 ZM227.490,63.278 L226.348,64.255 C224.336,65.975 222.273,67.137 220.161,67.740 C218.47,68.343 216.31,68.346 214.113,67.749 C212.194,67.152 210.515,66.12 209.76,64.330 C207.653,62.666 206.791,60.835 206.490,58.838 C206.189,56.841 206.488,54.844 207.385,52.848 C208.281,50.851 209.708,49.8 211.665,47.318 L212.821,46.329 C214.823,44.617 216.894,43.460 219.33,42.859 C221.172,42.258 223.201,42.256 225.120,42.853 C227.39,43.450 228.714,44.585 230.145,46.258 C231.576,47.931 232.443,49.758 232.745,51.738 C233.47,53.718 232.745,55.706 231.839,57.701 C230.934,59.697 229.484,61.555 227.490,63.278 ZM227.184,48.791 C225.865,47.249 224.230,46.561 222.279,46.724 C220.327,46.888 218.238,47.905 216.14,49.776 L214.829,50.789 C212.573,52.719 211.205,54.650 210.726,56.582 C210.246,58.514 210.674,60.261 212.9,61.821 C213.359,63.400 215.0,64.101 216.931,63.922 C218.862,63.744 220.984,62.665 223.296,60.687 L224.368,59.771 C226.642,57.825 228.18,55.903 228.495,54.6 C228.972,52.108 228.535,50.370 227.184,48.791 ZM205.593,40.11 L204.830,41.131 C203.389,43.247 201.700,44.821 199.764,45.852 C197.827,46.883 195.783,47.302 193.632,47.109 C191.481,46.916 189.398,46.134 187.384,44.763 L180.958,40.387 L196.164,18.57 L202.758,22.547 C204.732,23.891 206.183,25.523 207.113,27.443 C208.43,29.363 208.377,31.417 208.115,33.603 C207.854,35.789 207.13,37.925 205.593,40.11 ZM203.911,30.712 C203.726,28.719 202.632,27.41 200.628,25.676 L197.913,23.828 L186.969,39.900 L189.499,41.624 C191.534,43.9 193.528,43.437 195.483,42.908 C197.437,42.379 199.233,40.933 200.873,38.569 L201.717,37.329 C203.364,34.911 204.95,32.705 203.911,30.712 ZM184.969,219.223 L196.957,243.433 L188.444,247.649 C185.651,249.32 183.184,249.473 181.45,248.971 C178.905,248.470 177.247,247.32 176.72,244.657 C175.270,243.38 174.989,241.488 175.229,240.8 C175.470,238.528 176.143,237.149 177.248,235.869 L166.819,228.480 L166.712,228.264 L171.218,226.33 L180.684,232.940 L185.373,230.618 L180.762,221.306 L184.969,219.223 ZM182.730,236.151 C181.311,236.853 180.379,237.760 179.935,238.870 C179.491,239.980 179.576,241.156 180.191,242.398 C180.833,243.695 181.699,244.515 182.787,244.860 C183.876,245.204 185.157,245.25 186.631,244.323 L191.71,242.124 L187.53,234.10 L182.730,236.151 ZM165.503,33.446 L149.65,29.275 L155.709,3.89 L160.260,4.244 L154.546,26.761 L166.434,29.777 L165.503,33.446 ZM157.408,231.991 C159.300,232.700 160.899,233.932 162.207,235.686 C163.515,237.441 164.431,239.584 164.955,242.116 L165.257,243.607 C165.779,246.190 165.783,248.561 165.267,250.723 C164.751,252.884 163.766,254.658 162.311,256.44 C160.856,257.430 159.49,258.341 156.891,258.778 C154.733,259.214 152.716,259.83 150.839,258.383 C148.962,257.684 147.372,256.453 146.69,254.691 C144.767,252.929 143.848,250.758 143.314,248.178 L143.16,246.705 C142.491,244.110 142.479,241.743 142.980,239.603 C143.482,237.464 144.460,235.701 145.914,234.315 C147.370,232.929 149.182,232.17 151.352,231.578 C153.498,231.144 155.517,231.281 157.408,231.991 ZM147.887,238.639 C147.104,240.413 147.14,242.791 147.617,245.774 L147.896,247.156 C148.490,250.90 149.499,252.227 150.925,253.567 C152.351,254.906 154.82,255.370 156.119,254.958 C158.107,254.556 159.505,253.463 160.311,251.678 C161.117,249.893 161.245,247.574 160.693,244.720 L160.384,243.192 C159.795,240.282 158.774,238.148 157.319,236.789 C155.864,235.429 154.130,234.954 152.117,235.361 C150.81,235.773 148.671,236.865 147.887,238.639 ZM143.588,28.303 L126.637,27.799 L127.441,0.795 L132.133,0.935 L131.442,24.155 L143.701,24.520 L143.588,28.303 ZM114.513,27.898 C113.79,29.306 111.281,30.246 109.118,30.718 C106.979,31.184 104.958,31.78 103.56,30.397 C101.154,29.718 99.536,28.510 98.202,26.775 C96.867,25.41 95.918,22.912 95.355,20.389 L95.31,18.902 C94.469,16.328 94.429,13.956 94.912,11.787 C95.395,9.619 96.353,7.830 97.787,6.422 C99.220,5.14 101.13,4.75 103.164,3.606 C105.315,3.136 107.334,3.237 109.222,3.908 C111.109,4.578 112.717,5.785 114.47,7.527 C115.376,9.269 116.328,11.425 116.902,13.997 L117.222,15.465 C117.787,18.52 117.835,20.418 117.366,22.565 C116.898,24.712 115.947,26.490 114.513,27.898 ZM112.636,16.466 L112.335,15.88 C111.697,12.164 110.655,10.42 109.209,8.725 C107.763,7.407 106.25,6.970 103.995,7.413 C102.12,7.845 100.632,8.960 99.853,10.757 C99.74,12.554 98.982,14.875 99.578,17.720 L99.910,19.243 C100.543,22.143 101.597,24.262 103.73,25.599 C104.548,26.935 106.289,27.385 108.295,26.947 C110.325,26.504 111.718,25.390 112.475,23.604 C113.231,21.818 113.285,19.439 112.636,16.466 ZM95.44,227.993 L111.416,232.413 L104.375,258.495 L99.843,257.272 L105.898,234.844 L94.57,231.647 L95.44,227.993 ZM79.793,29.793 L75.140,32.186 L79.891,41.427 L75.717,43.573 L63.362,19.548 L71.811,15.204 C74.583,13.778 77.42,13.300 79.189,13.769 C81.336,14.238 83.15,15.651 84.227,18.7 C85.53,19.615 85.358,21.160 85.140,22.643 C84.922,24.126 84.270,25.516 83.184,26.812 L93.724,34.42 L93.835,34.257 L89.363,36.556 L79.793,29.793 ZM80.142,20.329 C79.480,19.42 78.603,18.235 77.509,17.907 C76.415,17.579 75.137,17.777 73.674,18.502 L69.268,20.767 L73.409,28.820 L77.699,26.614 C79.107,25.890 80.25,24.969 80.452,23.852 C80.879,22.736 80.776,21.561 80.142,20.329 ZM64.615,40.336 C66.336,42.664 67.44,45.48 66.739,47.489 C66.435,49.929 65.135,52.177 62.841,54.233 C61.239,55.669 59.486,56.554 57.585,56.888 C55.683,57.222 53.773,56.986 51.855,56.180 C49.937,55.374 48.134,54.57 46.448,52.231 L44.764,50.351 C43.63,48.454 41.901,46.480 41.278,44.431 C40.654,42.382 40.620,40.403 41.176,38.493 C41.732,36.583 42.834,34.889 44.483,33.412 C46.703,31.422 49.29,30.422 51.461,30.411 C53.892,30.399 56.205,31.396 58.399,33.399 L54.917,36.520 C53.455,35.222 52.99,34.556 50.848,34.523 C49.597,34.489 48.317,35.59 47.9,36.231 C45.489,37.593 44.819,39.195 45.0,41.36 C45.180,42.878 46.224,44.881 48.130,47.46 L49.729,48.831 C51.679,51.7 53.555,52.318 55.359,52.763 C57.162,53.209 58.814,52.759 60.315,51.414 C61.688,50.184 62.443,48.951 62.581,47.714 C62.719,46.478 62.236,45.59 61.133,43.456 L64.615,40.336 ZM26.411,66.314 C27.229,66.864 28.167,66.942 29.224,66.549 C30.282,66.157 31.655,65.261 33.343,63.862 C35.32,62.463 36.563,61.457 37.935,60.844 C39.308,60.231 40.589,59.966 41.777,60.49 C42.966,60.131 44.135,60.559 45.285,61.331 C47.154,62.586 48.160,64.301 48.302,66.474 C48.444,68.648 47.691,70.963 46.43,73.417 C44.954,75.40 43.652,76.330 42.137,77.287 C40.623,78.244 39.84,78.745 37.519,78.790 C35.954,78.835 34.469,78.385 33.62,77.440 L35.678,73.542 C36.952,74.398 38.220,74.638 39.484,74.265 C40.748,73.892 41.907,72.920 42.962,71.348 C43.872,69.993 44.282,68.789 44.191,67.737 C44.100,66.686 43.603,65.856 42.699,65.249 C41.713,64.587 40.721,64.424 39.721,64.758 C38.722,65.93 37.343,65.982 35.585,67.423 C33.827,68.866 32.256,69.896 30.871,70.516 C28.216,71.698 25.856,71.596 23.791,70.210 C21.984,68.996 20.989,67.260 20.808,65.0 C20.627,62.740 21.326,60.434 22.905,58.83 C23.953,56.522 25.175,55.323 26.570,54.487 C27.966,53.651 29.430,53.241 30.962,53.256 C32.493,53.272 33.906,53.714 35.200,54.582 L32.594,58.464 C31.433,57.685 30.277,57.442 29.127,57.735 C27.977,58.28 26.944,58.858 26.27,60.223 C25.172,61.497 24.779,62.667 24.849,63.735 C24.918,64.802 25.439,65.662 26.411,66.314 ZM22.21,97.505 L15.981,99.303 L20.92,103.863 L17.547,105.971 L13.704,100.926 L10.626,105.948 L7.878,104.131 L11.459,99.306 L5.239,97.878 L6.122,94.676 L12.302,96.670 L11.713,90.791 L15.53,90.674 L15.95,96.652 L20.840,94.388 L22.21,97.505 ZM27.836,132.406 L9.591,145.803 L28.708,144.416 L29.48,149.98 L2.103,151.53 L1.763,146.371 L20.80,132.931 L0.889,134.324 L0.552,129.679 L27.496,127.723 L27.836,132.406 ZM33.504,164.629 L17.128,176.764 L37.385,174.268 L39.69,178.450 L16.338,194.324 L14.598,190.4 L31.861,178.532 L11.105,181.329 L9.636,177.681 L26.594,165.352 L6.178,169.92 L4.438,164.772 L31.827,160.464 L33.504,164.629 ZM33.514,197.231 L34.671,196.271 C36.709,194.581 38.788,193.451 40.910,192.880 C43.32,192.309 45.48,192.337 46.957,192.963 C48.867,193.589 50.528,194.754 51.942,196.458 C53.340,198.143 54.174,199.987 54.444,201.989 C54.714,203.990 54.386,205.982 53.458,207.965 C52.532,209.947 51.77,211.768 49.95,213.428 L47.924,214.400 C45.896,216.82 43.808,217.207 41.660,217.775 C39.512,218.344 37.483,218.315 35.573,217.689 C33.664,217.63 32.6,215.903 30.601,214.208 C29.195,212.513 28.356,210.674 28.84,208.689 C27.813,206.705 28.145,204.722 29.80,202.740 C30.16,200.759 31.494,198.922 33.514,197.231 ZM33.600,211.720 C34.895,213.282 36.520,213.995 38.473,213.861 C40.427,213.727 42.531,212.742 44.784,210.905 L45.984,209.910 C48.269,208.15 49.666,206.105 50.174,204.180 C50.683,202.255 50.282,200.503 48.971,198.922 C47.645,197.323 46.15,196.597 44.81,196.747 C42.148,196.896 40.10,197.942 37.668,199.884 L36.583,200.785 C34.279,202.696 32.874,204.596 32.368,206.486 C31.862,208.376 32.273,210.121 33.600,211.720 ZM55.111,221.28 L55.876,219.910 C57.321,217.797 59.13,216.226 60.952,215.199 C62.890,214.172 64.935,213.757 67.86,213.954 C69.236,214.151 71.317,214.937 73.329,216.313 L79.746,220.701 L64.496,243.1 L57.910,238.498 C55.940,237.150 54.492,235.515 53.566,233.593 C52.640,231.671 52.310,229.617 52.576,227.431 C52.842,225.245 53.687,223.111 55.111,221.28 ZM56.774,230.331 C56.955,232.324 58.46,234.5 60.47,235.373 L62.758,237.227 L73.735,221.176 L71.208,219.448 C69.176,218.58 67.182,217.626 65.227,218.151 C63.272,218.676 61.472,220.119 59.828,222.480 L58.981,223.718 C57.330,226.133 56.594,228.337 56.774,230.331 ZM116.881,233.468 L133.823,234.228 L132.614,261.216 L127.924,261.6 L128.964,237.799 L116.712,237.250 L116.881,233.468 ZM196.21,222.629 C194.336,220.275 193.664,217.880 194.6,215.445 C194.347,213.9 195.681,210.781 198.6,208.761 C199.630,207.349 201.396,206.491 203.302,206.186 C205.209,205.881 207.115,206.146 209.20,206.981 C210.926,207.816 212.708,209.160 214.367,211.13 L216.22,212.917 C217.694,214.841 218.826,216.831 219.418,218.890 C220.10,220.948 220.14,222.928 219.429,224.829 C218.844,226.730 217.716,228.407 216.45,229.859 C213.795,231.814 211.454,232.779 209.22,232.754 C206.591,232.728 204.294,231.696 202.130,229.660 L205.660,226.593 C207.102,227.912 208.448,228.599 209.698,228.651 C210.948,228.704 212.236,228.154 213.562,227.2 C215.103,225.663 215.797,224.72 215.644,222.228 C215.492,220.383 214.479,218.364 212.606,216.171 L211.34,214.362 C209.118,212.157 207.261,210.817 205.465,210.344 C203.669,209.871 202.10,210.295 200.488,211.618 C199.97,212.827 198.323,214.48 198.167,215.283 C198.10,216.517 198.471,217.943 199.550,219.562 L196.21,222.629 ZM215.747,201.927 C213.889,200.656 212.898,198.933 212.774,196.758 C212.651,194.583 213.424,192.275 215.92,189.835 C216.196,188.221 217.508,186.943 219.31,185.998 C220.554,185.54 222.97,184.566 223.662,184.535 C225.227,184.503 226.709,184.966 228.108,185.923 L225.458,189.798 C224.192,188.932 222.925,188.680 221.658,189.43 C220.391,189.405 219.224,190.367 218.155,191.930 C217.234,193.277 216.814,194.477 216.896,195.530 C216.978,196.583 217.468,197.416 218.366,198.31 C219.347,198.701 220.338,198.873 221.340,198.547 C222.342,198.221 223.729,197.344 225.499,195.917 C227.269,194.490 228.849,193.473 230.239,192.865 C232.905,191.706 235.264,191.828 237.316,193.231 C239.113,194.460 240.93,196.205 240.255,198.467 C240.417,200.728 239.698,203.28 238.99,205.366 C237.38,206.918 235.806,208.106 234.403,208.930 C233.0,209.754 231.533,210.152 230.1,210.123 C228.470,210.95 227.61,209.641 225.774,208.761 L228.414,204.902 C229.568,205.691 230.721,205.944 231.874,205.661 C233.26,205.377 234.67,204.556 234.996,203.199 C235.861,201.932 236.264,200.765 236.203,199.697 C236.143,198.629 235.629,197.765 234.663,197.105 C233.850,196.548 232.913,196.462 231.852,196.845 C230.791,197.229 229.411,198.113 227.710,199.498 C226.10,200.882 224.470,201.875 223.92,202.476 C221.715,203.78 220.432,203.332 219.244,203.239 C218.56,203.146 216.891,202.709 215.747,201.927 ZM242.323,156.408 L244.835,154.261 L248.756,159.247 L251.756,154.179 L254.532,155.953 L251.25,160.832 L257.267,162.164 L256.433,165.379 L250.223,163.480 L250.902,169.350 L247.565,169.519 L247.430,163.542 L241.721,165.894 L240.493,162.796 L246.504,160.905 L242.323,156.408 Z"/>
</svg>